<svg width="70" height="55" viewBox="0 0 70 55" fill="none" xmlns="http://www.w3.org/2000/svg">
<g clip-path="url(#clip0_2556_8357)">
<path d="M61.0945 18.2224H57.0569V16.141C57.0569 14.4844 55.6969 13.1251 54.0394 13.1251C52.3818 13.1251 51.0218 14.4844 51.0218 16.141V18.2224H46.9843V16.141C46.9843 12.2331 50.1718 9.08984 54.0394 9.08984C57.9494 9.08984 61.0945 12.2756 61.0945 16.141V18.2224Z" fill="white"/>
<path d="M62.7519 18.2227H45.3266C44.5616 18.2227 43.9666 18.8173 43.9666 19.5819V32.4524C43.9666 33.217 44.5616 33.8117 45.3266 33.8117H62.7519C63.5169 33.8117 64.1119 33.217 64.1119 32.4524V19.5819C64.0694 18.8173 63.4744 18.2227 62.7519 18.2227ZM54.8892 26.6756V28.4171C54.8892 28.8844 54.5067 29.3091 53.9967 29.3091C53.5292 29.3091 53.1042 28.9268 53.1042 28.4171V26.6756C52.5517 26.3782 52.2117 25.7835 52.2117 25.1039C52.2117 24.1269 53.0192 23.3199 53.9967 23.3199C54.9742 23.3199 55.7818 24.1269 55.7818 25.1039C55.8243 25.7835 55.4417 26.3782 54.8892 26.6756Z" fill="white"/>
<path d="M43.5417 16.3113H39.3341C38.6541 16.3113 38.1016 15.7591 38.1016 15.0795C38.1016 14.3999 38.6541 13.8477 39.3341 13.8477H43.5417C44.2217 13.8477 44.7742 14.3999 44.7742 15.0795C44.7742 15.7591 44.2217 16.3113 43.5417 16.3113Z" fill="white"/>
<path d="M46.5163 9.68464C46.2613 9.68464 45.9638 9.59969 45.7513 9.3873L42.4363 6.66878C41.9263 6.24401 41.8413 5.47943 42.2663 4.92723C42.6913 4.41751 43.4563 4.33255 44.0088 4.75732L47.3238 7.47584C47.8339 7.90061 47.9189 8.6652 47.4938 9.21739C47.1963 9.51473 46.8563 9.68464 46.5163 9.68464Z" fill="white"/>
<path d="M54.0394 6.79631C53.3594 6.79631 52.8069 6.24411 52.8069 5.56448V1.31679C52.8069 0.63716 53.3594 0.0849609 54.0394 0.0849609C54.7194 0.0849609 55.2719 0.63716 55.2719 1.31679V5.56448C55.2719 6.24411 54.7194 6.79631 54.0394 6.79631Z" fill="white"/>
<path d="M61.5196 9.68464C61.1796 9.68464 60.7971 9.51473 60.5846 9.21739C60.1596 8.70767 60.2446 7.90061 60.7546 7.47584L64.0697 4.75732C64.5797 4.33255 65.3872 4.41751 65.8122 4.92723C66.2372 5.43695 66.1522 6.24401 65.6422 6.66878L62.3272 9.3873C62.0721 9.59969 61.8171 9.68464 61.5196 9.68464Z" fill="white"/>
<path d="M68.7023 16.3113H64.4522C63.7722 16.3113 63.2197 15.7591 63.2197 15.0795C63.2197 14.3999 63.7722 13.8477 64.4522 13.8477H68.7023C69.3823 13.8477 69.9348 14.3999 69.9348 15.0795C69.9348 15.7591 69.3823 16.3113 68.7023 16.3113Z" fill="white"/>
<path d="M0.106445 33.6419V19.9219H3.4215V30.7535H8.73409V33.6419H0.106445ZM19.6993 28.927V29.3092V29.6915H12.6867C12.7292 29.9464 12.8142 30.2013 12.9417 30.4136C13.0692 30.626 13.2392 30.8384 13.4517 30.9658C13.6642 31.1358 13.9192 31.2632 14.1742 31.3481C14.4292 31.4331 14.7267 31.4756 14.9817 31.4756C15.4917 31.4756 15.9167 31.3906 16.2567 31.1782C16.5967 31.0083 16.8942 30.7535 17.1067 30.4561L19.3168 31.8579C18.8493 32.5375 18.2542 33.0047 17.5317 33.387C16.8092 33.7268 15.9167 33.9392 14.9392 33.9392C14.2167 33.9392 13.5367 33.8118 12.8992 33.5994C12.2616 33.387 11.7091 33.0472 11.1991 32.6224C10.7316 32.1977 10.3491 31.6455 10.0516 31.0083C9.75411 30.3712 9.6266 29.6491 9.6266 28.842C9.6266 28.0349 9.75411 27.3553 10.0516 26.7182C10.3066 26.081 10.6891 25.5288 11.1566 25.104C11.6241 24.6793 12.1766 24.297 12.8142 24.0846C13.4517 23.8297 14.1317 23.7023 14.8542 23.7023C15.5767 23.7023 16.2142 23.8297 16.8092 24.0421C17.4042 24.297 17.9142 24.6368 18.3392 25.0616C18.7643 25.5288 19.1043 26.081 19.3168 26.7182C19.5718 27.3978 19.6993 28.1199 19.6993 28.927ZM16.7667 27.7376C16.7667 27.2279 16.5967 26.8031 16.2992 26.4208C16.0017 26.0385 15.4917 25.8686 14.8542 25.8686C14.5567 25.8686 14.2592 25.9111 14.0042 25.996C13.7492 26.081 13.5367 26.2084 13.3242 26.3783C13.1117 26.5482 12.9842 26.7606 12.8567 26.973C12.7292 27.1854 12.6867 27.4403 12.6442 27.6951H16.7667V27.7376ZM24.7994 26.3783V30.0738C24.7994 30.5411 24.8844 30.8809 25.0544 31.0933C25.2244 31.3057 25.5219 31.4331 25.9894 31.4331C26.1594 31.4331 26.3294 31.4331 26.4994 31.3906C26.6694 31.3481 26.8394 31.3057 26.9244 31.2632L26.9669 33.5994C26.7544 33.6844 26.4569 33.7268 26.1169 33.8118C25.7769 33.8543 25.4369 33.8967 25.0969 33.8967C24.4594 33.8967 23.9068 33.8118 23.4818 33.6419C23.0568 33.472 22.6743 33.2596 22.4193 32.9623C22.1643 32.6649 21.9518 32.2826 21.8668 31.8579C21.7818 31.4331 21.6968 30.9658 21.6968 30.4561V26.3783H20.1243V23.9996H21.6543V21.451H24.7994V23.9996H27.0519V26.3783H24.7994ZM29.9844 19.667C29.0494 19.667 28.2844 20.3466 28.2844 21.2386C28.2844 22.1731 28.9219 22.7678 29.8569 22.7678C29.9419 22.7678 30.0269 22.7678 30.0694 22.7253C29.8994 23.405 29.2619 23.9147 28.6244 23.9996H28.4969V25.4863H28.6669C29.4319 25.4014 30.1544 25.0616 30.707 24.5518C31.4295 23.8722 31.812 22.8528 31.812 21.6634C31.812 20.5165 31.047 19.667 29.9844 19.667ZM37.3371 26.8456C37.0821 26.5907 36.7846 26.3783 36.4445 26.2084C36.1045 26.0385 35.722 25.9536 35.3395 25.9536C35.042 25.9536 34.787 25.996 34.532 26.1235C34.277 26.2509 34.1495 26.4208 34.1495 26.7182C34.1495 26.973 34.277 27.1854 34.5745 27.3128C34.872 27.4403 35.297 27.5677 35.9345 27.6951C36.317 27.7801 36.6571 27.865 37.0396 28.0349C37.4221 28.2048 37.7196 28.3748 38.0171 28.5871C38.3146 28.7995 38.5696 29.0969 38.7396 29.4367C38.9096 29.7765 38.9946 30.1588 38.9946 30.626C38.9946 31.2207 38.8671 31.7304 38.6121 32.1552C38.3571 32.58 38.0596 32.9198 37.6346 33.1746C37.2521 33.4295 36.7846 33.5994 36.317 33.7268C35.807 33.8543 35.3395 33.8967 34.8295 33.8967C34.022 33.8967 33.257 33.7693 32.5345 33.5145C31.7695 33.2596 31.132 32.8773 30.6645 32.4101L32.4495 30.5411C32.747 30.8384 33.087 31.0933 33.512 31.3057C33.937 31.518 34.362 31.603 34.8295 31.603C35.0845 31.603 35.3395 31.5605 35.5945 31.4331C35.8495 31.3057 35.977 31.0933 35.977 30.7959C35.977 30.4986 35.807 30.2862 35.5095 30.1163C35.212 29.9889 34.702 29.819 34.0645 29.6915C33.7245 29.6066 33.3845 29.5216 33.0445 29.3942C32.7045 29.2668 32.407 29.0969 32.152 28.8845C31.897 28.6721 31.6845 28.3748 31.5145 28.0774C31.3445 27.7376 31.2595 27.3553 31.2595 26.9305C31.2595 26.3359 31.387 25.8686 31.642 25.4438C31.897 25.0191 32.1945 24.7217 32.577 24.4669C32.9595 24.212 33.3845 23.9996 33.852 23.9147C34.3195 23.7873 34.787 23.7448 35.2545 23.7448C35.977 23.7448 36.6996 23.8722 37.3796 24.0846C38.0596 24.297 38.6546 24.6368 39.1221 25.104L37.3371 26.8456ZM0.106445 49.5282V35.8082H9.3291V38.6117H3.294V41.2028H8.98909V43.8363H3.294V46.6823H9.6691V49.5282H0.106445ZM18.0417 49.5282V44.2611C18.0417 44.0062 17.9992 43.7514 17.9567 43.4965C17.9142 43.2417 17.8292 43.0293 17.7442 42.8594C17.6592 42.6895 17.4892 42.5196 17.3192 42.4346C17.1492 42.3072 16.8942 42.2647 16.5967 42.2647C16.2992 42.2647 16.0442 42.3072 15.8317 42.4346C15.6192 42.562 15.4492 42.6895 15.2792 42.9018C15.1517 43.1142 15.0242 43.3266 14.9392 43.5815C14.8542 43.8363 14.8117 44.0912 14.8117 44.3461V49.5707H11.6241V39.9285H14.6842V41.2453H14.7267C14.8542 41.0329 14.9817 40.8205 15.1942 40.6506C15.3642 40.4382 15.6192 40.2683 15.8317 40.1409C16.0867 40.0134 16.3417 39.886 16.6392 39.801C16.9367 39.7161 17.2342 39.6736 17.5742 39.6736C18.2117 39.6736 18.7643 39.801 19.2318 40.0134C19.6993 40.2258 20.0393 40.5656 20.3368 40.9054C20.6343 41.2877 20.8043 41.7125 20.9318 42.1797C21.0593 42.647 21.1018 43.1142 21.1018 43.624V49.5707H18.0417V49.5282ZM29.4319 42.9868C29.2619 42.7744 29.0069 42.562 28.7094 42.4346C28.4119 42.3072 28.0719 42.2222 27.7744 42.2222C27.4344 42.2222 27.1369 42.3072 26.8819 42.4346C26.6269 42.562 26.3719 42.7319 26.2019 42.9868C26.0319 43.2417 25.8619 43.4541 25.7344 43.7514C25.6069 44.0487 25.5644 44.3461 25.5644 44.6859C25.5644 45.0257 25.6069 45.323 25.7344 45.6204C25.8194 45.9177 25.9894 46.1726 26.2019 46.385C26.4144 46.5973 26.6269 46.8097 26.9244 46.9372C27.2219 47.0646 27.5194 47.1495 27.8594 47.1495C28.1994 47.1495 28.4969 47.1071 28.8369 46.9796C29.1344 46.8522 29.3894 46.6823 29.6019 46.4274L31.3445 48.5938C30.962 48.976 30.4095 49.2734 29.8144 49.4858C29.1769 49.6981 28.4969 49.8256 27.8169 49.8256C27.0519 49.8256 26.3294 49.6981 25.6919 49.4858C25.0119 49.2734 24.4594 48.9336 23.9493 48.4663C23.4818 48.0416 23.0993 47.4894 22.8018 46.8522C22.5043 46.215 22.3768 45.4929 22.3768 44.6859C22.3768 43.8788 22.5043 43.1992 22.8018 42.562C23.0993 41.9249 23.4818 41.3727 23.9493 40.9479C24.4169 40.5231 25.0119 40.1409 25.6919 39.9285C26.3719 39.6736 27.0519 39.5886 27.8169 39.5886C28.1569 39.5886 28.4969 39.6311 28.8369 39.6736C29.1769 39.7586 29.5169 39.8435 29.8144 39.9285C30.1119 40.0559 30.4095 40.1833 30.707 40.3532C30.962 40.5231 31.217 40.6931 31.387 40.9054L29.4319 42.9868ZM38.6971 42.5196C38.5696 42.4771 38.3996 42.4346 38.2721 42.4346H37.8896C37.4646 42.4346 37.1246 42.5196 36.8271 42.647C36.5295 42.8169 36.317 42.9868 36.147 43.1992C35.977 43.4116 35.8495 43.6664 35.7645 43.9213C35.6795 44.1762 35.637 44.3885 35.637 44.6009V49.5282H32.4495V39.886H35.5095V41.2877H35.552C35.807 40.778 36.147 40.3957 36.6146 40.0984C37.0821 39.801 37.5921 39.6311 38.1871 39.6311H38.5696C38.6971 39.6311 38.7821 39.6736 38.8671 39.6736L38.6971 42.5196ZM46.1772 50.9725C45.9647 51.4822 45.7522 51.9069 45.5397 52.3317C45.2847 52.714 45.0297 53.0538 44.6897 53.3512C44.3497 53.6485 43.9672 53.8184 43.5422 53.9883C43.1172 54.1157 42.5647 54.2007 41.9696 54.2007C41.6721 54.2007 41.3746 54.2007 41.0346 54.1582C40.7371 54.1157 40.4396 54.0733 40.2271 53.9883L40.5671 51.3123C40.7371 51.3547 40.9071 51.3972 41.0771 51.4397C41.2471 51.4822 41.4171 51.4822 41.5871 51.4822C42.0971 51.4822 42.4371 51.3547 42.6497 51.1424C42.8622 50.93 43.0747 50.5902 43.2022 50.1654L43.4997 49.3583L39.4621 39.886H42.9897L45.1572 46.0876H45.1997L47.1122 39.886H50.4698L46.1772 50.9725ZM62.0725 44.6859C62.0725 45.3655 61.9875 46.0027 61.775 46.6398C61.5625 47.277 61.265 47.7867 60.8825 48.2964C60.4999 48.7637 59.9899 49.146 59.4374 49.4433C58.8849 49.7406 58.2049 49.8681 57.4824 49.8681C56.8874 49.8681 56.3349 49.7406 55.7824 49.5282C55.2724 49.2734 54.8474 48.976 54.5499 48.5513H54.5074V54.2857H51.3198V40.0134H54.3373V41.2028H54.3798C54.6774 40.8205 55.1024 40.4807 55.6124 40.1833C56.1224 39.886 56.7599 39.7586 57.4824 39.7586C58.1624 39.7586 58.7999 39.886 59.3949 40.1833C59.9474 40.4382 60.4574 40.8205 60.84 41.2877C61.2225 41.755 61.52 42.3072 61.7325 42.9018C61.945 43.3691 62.0725 44.0062 62.0725 44.6859ZM58.9699 44.6859C58.9699 44.3885 58.9274 44.0912 58.8424 43.7939C58.7574 43.4965 58.5874 43.2417 58.4174 43.0293C58.2474 42.8169 57.9924 42.6045 57.6949 42.4771C57.3974 42.3496 57.0999 42.2647 56.7174 42.2647C56.3349 42.2647 56.0374 42.3496 55.7399 42.4771C55.4424 42.6045 55.2299 42.8169 55.0174 43.0293C54.8049 43.2417 54.6774 43.539 54.5499 43.8363C54.4223 44.1337 54.3798 44.431 54.3798 44.7284C54.3798 45.0257 54.4223 45.323 54.5499 45.6204C54.6774 45.9177 54.8049 46.1726 55.0174 46.4274C55.2299 46.6398 55.4424 46.8522 55.7399 46.9796C56.0374 47.1071 56.3349 47.192 56.7174 47.192C57.0999 47.192 57.4399 47.1071 57.6949 46.9796C57.9924 46.8522 58.2049 46.6398 58.4174 46.4274C58.5874 46.215 58.7574 45.9177 58.8424 45.6204C58.9274 45.2806 58.9699 44.9832 58.9699 44.6859ZM67.1301 42.2647V45.9602C67.1301 46.4274 67.2151 46.7672 67.3851 46.9796C67.5551 47.192 67.8526 47.3194 68.3201 47.3194C68.4901 47.3194 68.6601 47.3194 68.8301 47.277C69.0001 47.2345 69.1701 47.192 69.2551 47.1495L69.2976 49.4858C69.0851 49.5707 68.7876 49.6132 68.4476 49.6982C68.1076 49.7406 67.7676 49.7831 67.4276 49.7831C66.7901 49.7831 66.2375 49.6981 65.8125 49.5282C65.3875 49.3583 65.005 49.146 64.75 48.8486C64.495 48.5513 64.2825 48.169 64.1975 47.7442C64.1125 47.3194 64.0275 46.8522 64.0275 46.3425V42.2647H62.4975V39.886H64.0275V37.3374H67.1301V39.886H69.3826V42.2647H67.1301Z" fill="white"/>
</g>
<defs>
<clipPath id="clip0_2556_8357">
<rect width="70" height="54.3836" fill="white"/>
</clipPath>
</defs>
</svg>
