<svg width="195" height="38" viewBox="0 0 195 38" fill="none" xmlns="http://www.w3.org/2000/svg">
<path d="M5.23628 5.82143H0V32.594C0 35.4866 2.34366 37.8303 5.23628 37.8303H10.4726V11.0577C10.4726 8.16509 8.1289 5.82143 5.23628 5.82143Z" fill="#276EB6"/>
<path d="M18.9151 0H13.6788V26.7726C13.6788 29.6652 16.0225 32.0089 18.9151 32.0089H24.1514V5.23628C24.1484 2.34667 21.8047 0 18.9151 0Z" fill="#276EB6"/>
<path d="M32.591 5.82143H27.3547V32.594C27.3547 35.4866 29.6984 37.8303 32.591 37.8303H37.8273V11.0577C37.8273 8.16509 35.4836 5.82143 32.591 5.82143Z" fill="#276EB6"/>
<path d="M49.6602 27.0682C49.1896 27.0682 48.8789 26.9958 48.7221 26.854C48.5652 26.7123 48.4868 26.4046 48.4868 25.9341V12.6021C48.6949 12.5236 48.9966 12.4211 49.3857 12.2884C49.7778 12.1587 50.2453 12.0229 50.7943 11.8782C51.3402 11.7364 51.9736 11.6188 52.6915 11.5252C53.4094 11.4348 54.1966 11.3895 55.0563 11.3895C55.9431 11.3895 56.7122 11.4619 57.3637 11.6037C58.0153 11.7485 58.5763 11.9958 59.0438 12.3457C59.5113 12.6956 59.9035 13.1721 60.2172 13.7724H59.6712C59.8793 13.329 60.181 12.9459 60.5701 12.6202C60.9622 12.2944 61.4176 12.041 61.9395 11.857C62.4613 11.6761 63.0012 11.5433 63.5622 11.4649C64.1233 11.3865 64.6632 11.3473 65.185 11.3473C66.6449 11.3473 67.7911 11.4921 68.6266 11.7786C69.4621 12.0652 70.0533 12.5478 70.4062 13.2264C70.7591 13.9051 70.934 14.804 70.934 15.923V26.0095C70.934 26.4257 70.8556 26.7062 70.6988 26.851C70.5419 26.9958 70.2554 27.0652 69.8391 27.0652H68.1983C68.1983 25.189 68.1983 23.3189 68.1983 21.4549C68.1983 19.5908 68.1983 17.7207 68.1983 15.8446C68.1983 14.6984 67.9177 13.9081 67.3567 13.4798C66.7957 13.0485 65.9692 12.8343 64.8743 12.8343C64.3525 12.8343 63.7975 12.9007 63.2123 13.0304C62.6272 13.1601 62.1235 13.3561 61.7072 13.6155C61.291 13.878 61.0828 14.1766 61.0828 14.5144V27.0652H58.3471V14.8281C58.3471 14.2821 58.0273 13.8176 57.3879 13.4406C56.7484 13.0636 55.934 12.8735 54.9447 12.8735C54.3444 12.8735 53.7714 12.9188 53.2254 13.0093C52.6795 13.0998 52.221 13.2325 51.856 13.4014C51.491 13.5703 51.2829 13.7995 51.2316 14.0861V27.0652H49.6602V27.0682Z" fill="#276EB6"/>
<path d="M81.1593 27.3396C79.621 27.3396 78.3692 27.2612 77.407 27.1044C76.4418 26.9475 75.7058 26.6821 75.1991 26.302C74.6894 25.925 74.3395 25.4213 74.1434 24.7969C73.9474 24.1725 73.8508 23.4034 73.8508 22.4895C73.8508 21.1593 74.0077 20.1428 74.3214 19.44C74.6351 18.7372 75.181 18.2546 75.9622 17.9922C76.7435 17.7328 77.7871 17.6001 79.0901 17.6001C79.7416 17.6001 80.4505 17.6181 81.2226 17.6574C81.9918 17.6966 82.7338 17.7358 83.4517 17.775C84.1665 17.8142 84.7939 17.8595 85.3278 17.9107C85.8617 17.962 86.2206 18.0284 86.4046 18.1068C86.4046 16.9093 86.2991 15.9562 86.0909 15.2534C85.8828 14.5506 85.5631 14.0288 85.1317 13.6879C84.7004 13.3501 84.1665 13.1269 83.5271 13.0243C82.8876 12.9218 82.1517 12.8675 81.3192 12.8675C80.4595 12.8675 79.5908 12.9007 78.7191 12.964C77.8444 13.0304 77.0451 13.1329 76.3151 13.2777C75.5852 13.4225 75.0242 13.6095 74.6351 13.8448V13.2596C74.6351 12.7137 74.7979 12.3276 75.1237 12.1074C75.4495 11.8872 75.8205 11.7364 76.2367 11.658C76.7314 11.5283 77.4553 11.4227 78.4054 11.3443C79.3556 11.2658 80.3539 11.2417 81.3976 11.2659C82.7278 11.2659 83.8679 11.3322 84.8181 11.4619C85.7682 11.5916 86.5585 11.8721 87.1828 12.3034C87.8072 12.7348 88.2777 13.3803 88.5914 14.2399C88.9051 15.0996 89.062 16.2729 89.062 17.7599V25.8134C88.9051 26.3352 88.2144 26.7183 86.9898 26.9656C85.7591 27.216 83.8166 27.3396 81.1593 27.3396ZM81.1593 26.0125C82.3568 26.0125 83.3159 25.9733 84.0338 25.8949C84.7517 25.8164 85.2976 25.7139 85.6747 25.5812C86.0517 25.4515 86.293 25.2825 86.3986 25.0714V19.247C86.1633 19.1685 85.726 19.0901 85.0895 19.0117C84.4501 18.9333 83.7805 18.8609 83.0746 18.7975C82.3718 18.7312 81.7716 18.701 81.2769 18.701C80.1549 18.701 79.25 18.7674 78.5593 18.8971C77.8685 19.0268 77.3739 19.3525 77.0722 19.8743C76.7736 20.3962 76.6228 21.2045 76.6228 22.2994C76.6228 23.1591 76.7254 23.8649 76.9365 24.4108C77.1446 24.9568 77.5669 25.364 78.2064 25.6234C78.8458 25.8828 79.8291 26.0125 81.1593 26.0125Z" fill="#276EB6"/>
<path d="M92.0934 19.1685C92.0934 17.0571 92.3739 15.4404 92.9349 14.3213C93.496 13.2023 94.3104 12.4332 95.3781 12.0139C96.4459 11.5976 97.7489 11.3895 99.2872 11.3895C99.7306 11.3895 100.258 11.4016 100.871 11.4287C101.483 11.4559 102.101 11.5011 102.729 11.5645C103.353 11.6308 103.902 11.7002 104.37 11.7786C104.84 11.857 105.166 11.9355 105.347 12.0139L104.527 12.406V7.32356H107.223L107.184 19.2108C107.184 20.9843 107.066 22.399 106.831 23.4517C106.596 24.5074 106.198 25.2946 105.64 25.8164C105.079 26.3382 104.297 26.6911 103.293 26.8721C102.288 27.0561 101.031 27.1466 99.5195 27.1466C98.1109 27.1466 96.9255 27.0561 95.9603 26.8721C94.9951 26.6911 94.2319 26.3262 93.6739 25.7772C93.1129 25.2313 92.7087 24.435 92.4614 23.3913C92.2171 22.3507 92.0934 20.9421 92.0934 19.1685ZM99.2872 25.5812C100.461 25.5812 101.393 25.5088 102.083 25.367C102.774 25.2252 103.302 24.9357 103.667 24.5074C104.032 24.076 104.267 23.4698 104.37 22.6885C104.472 21.9073 104.527 20.8757 104.527 19.5998V13.2656C104.24 13.2385 103.83 13.2144 103.296 13.1872C102.762 13.1601 102.207 13.1359 101.634 13.1088C101.061 13.0817 100.551 13.0696 100.108 13.0696C98.8559 13.0696 97.8394 13.2325 97.0582 13.5582C96.277 13.884 95.7099 14.4963 95.357 15.3951C95.0041 16.294 94.8292 17.591 94.8292 19.2862C94.8292 21.0839 94.9649 22.4321 95.2394 23.334C95.5139 24.2329 95.9753 24.8331 96.6269 25.1317C97.2814 25.4333 98.1682 25.5812 99.2872 25.5812Z" fill="#276EB6"/>
<path d="M113.434 27.0682H111.714C111.376 27.0682 111.12 26.9837 110.951 26.8148C110.782 26.6459 110.698 26.3262 110.698 25.8556V12.2491C111.271 12.0682 112.058 11.8721 113.063 11.664C114.067 11.4559 115.31 11.3503 116.797 11.3503C118.205 11.3503 119.318 11.4468 120.139 11.6429C120.959 11.8389 121.559 12.1074 121.936 12.4452C122.313 12.783 122.561 13.1963 122.678 13.6759C122.796 14.1585 122.853 14.6984 122.853 15.2986H120.235L120.196 14.7527C120.169 14.1524 119.976 13.7151 119.611 13.4436C119.246 13.1691 118.815 13.0002 118.32 12.9338C117.825 12.8705 117.328 12.8373 116.833 12.8373C116.076 12.8373 115.406 12.9037 114.818 13.0334C114.233 13.1631 113.768 13.332 113.431 13.5431V27.0682H113.434Z" fill="#276EB6"/>
<path d="M128.18 11.4679V22.0641C128.18 23.3672 128.551 24.2871 129.293 24.821C130.035 25.3549 131.175 25.6234 132.714 25.6234C134.355 25.6234 135.534 25.3429 136.252 24.7818C136.967 24.2208 137.326 23.3159 137.326 22.0641V11.4679C137.353 11.4679 137.437 11.4679 137.579 11.4679C137.721 11.4679 137.878 11.4679 138.05 11.4679C138.218 11.4679 138.381 11.4679 138.538 11.4679C138.695 11.4679 138.798 11.4679 138.852 11.4679C139.166 11.4679 139.413 11.486 139.594 11.5252C139.775 11.5645 139.899 11.661 139.965 11.8178C140.028 11.9747 140.061 12.2341 140.061 12.599V21.5514C140.061 22.8544 139.865 23.9312 139.476 24.7758C139.084 25.6234 138.354 26.2477 137.286 26.6519C136.219 27.0561 134.68 27.2582 132.674 27.2582C130.85 27.2582 129.411 27.0893 128.355 26.7484C127.299 26.4106 126.551 25.8375 126.108 25.0292C125.665 24.2208 125.444 23.1259 125.444 21.7444V12.596C125.444 12.1526 125.517 11.854 125.659 11.6972C125.8 11.5403 126.081 11.4619 126.5 11.4619C126.787 11.4619 127.067 11.4619 127.342 11.4619C127.613 11.4679 127.894 11.4679 128.18 11.4679Z" fill="#276EB6"/>
<path d="M150.419 31.5232C149.846 31.5232 149.201 31.5051 148.483 31.4659C147.765 31.4267 147.08 31.3483 146.429 31.2306C145.777 31.113 145.237 30.9441 144.806 30.7209C144.375 30.5007 144.161 30.2202 144.161 29.8794C144.161 29.7738 144.161 29.6441 144.161 29.4872C144.161 29.3304 144.161 29.2248 144.161 29.1735C144.526 29.3545 145.053 29.5264 145.744 29.6833C146.435 29.8401 147.171 29.9578 147.952 30.0362C148.733 30.1146 149.412 30.1538 149.985 30.1538C151.496 30.1538 152.669 29.9306 153.505 29.4902C154.337 29.0469 154.905 28.3109 155.206 27.2823C155.505 26.2538 155.616 24.8904 155.538 23.1953H156.123C155.864 24.082 155.42 24.7607 154.793 25.2282C154.169 25.6988 153.424 26.0245 152.564 26.2055C151.704 26.3895 150.778 26.48 149.789 26.48C148.278 26.48 147.026 26.305 146.037 25.9521C145.044 25.5992 144.317 24.8964 143.847 23.8407C143.376 22.785 143.144 21.2286 143.144 19.1685C143.144 17.5005 143.295 16.1522 143.593 15.1207C143.892 14.0921 144.369 13.3018 145.02 12.7559C145.672 12.2099 146.525 11.8359 147.581 11.6429C148.637 11.4468 149.919 11.3503 151.433 11.3503C152.006 11.3503 152.645 11.3774 153.348 11.4287C154.051 11.48 154.757 11.5252 155.46 11.5644C156.162 11.6037 156.781 11.6489 157.318 11.7002C157.851 11.7515 158.21 11.8058 158.394 11.857C158.367 11.9355 158.343 12.1496 158.316 12.5025C158.289 12.8554 158.277 13.2596 158.277 13.7151C158.277 14.1705 158.277 14.6079 158.277 15.0241V24.2902C158.277 26.115 158.008 27.5538 157.474 28.6095C156.941 29.6652 156.099 30.4132 154.953 30.8566C153.81 31.303 152.298 31.5232 150.419 31.5232ZM150.419 24.8391C151.385 24.8391 152.244 24.7275 153.001 24.5073C153.755 24.2872 154.371 23.9222 154.838 23.4124C155.309 22.9027 155.541 22.221 155.541 21.3583V13.3048C155.306 13.2536 154.772 13.1812 153.936 13.0907C153.101 13.0002 152.139 12.955 151.044 12.955C149.768 12.955 148.763 13.1178 148.033 13.4436C147.304 13.7694 146.776 14.3575 146.45 15.2021C146.124 16.0497 145.961 17.2682 145.961 18.8578C145.961 20.4746 146.103 21.7203 146.393 22.592C146.679 23.4667 147.147 24.0579 147.801 24.3716C148.453 24.6823 149.324 24.8391 150.419 24.8391Z" fill="#276EB6"/>
<path d="M168.562 27.3396C167.024 27.3396 165.772 27.2612 164.81 27.1044C163.845 26.9475 163.109 26.6821 162.602 26.302C162.092 25.925 161.742 25.4213 161.546 24.7969C161.35 24.1725 161.254 23.4034 161.254 22.4894C161.254 21.1593 161.411 20.1428 161.724 19.44C162.038 18.7372 162.584 18.2546 163.365 17.9922C164.146 17.7328 165.19 17.6 166.493 17.6C167.145 17.6 167.853 17.6181 168.626 17.6573C169.395 17.6966 170.137 17.7358 170.855 17.775C171.569 17.8142 172.197 17.8594 172.731 17.9107C173.265 17.962 173.624 18.0284 173.808 18.1068C173.808 16.9093 173.702 15.9562 173.494 15.2534C173.286 14.5506 172.966 14.0288 172.535 13.6879C172.103 13.3501 171.569 13.1269 170.93 13.0243C170.291 12.9218 169.555 12.8675 168.722 12.8675C167.862 12.8675 166.994 12.9007 166.122 12.964C165.247 13.0304 164.448 13.1329 163.718 13.2777C162.988 13.4225 162.427 13.6095 162.038 13.8448V13.2596C162.038 12.7137 162.201 12.3276 162.527 12.1074C162.852 11.8872 163.223 11.7364 163.64 11.658C164.134 11.5283 164.858 11.4227 165.808 11.3443C166.759 11.2658 167.757 11.2417 168.801 11.2658C170.131 11.2658 171.271 11.3322 172.221 11.4619C173.171 11.5916 173.961 11.8721 174.586 12.3034C175.21 12.7348 175.681 13.3803 175.994 14.2399C176.308 15.0995 176.465 16.2729 176.465 17.7599V25.8134C176.308 26.3352 175.617 26.7183 174.393 26.9656C173.162 27.216 171.22 27.3396 168.562 27.3396ZM168.562 26.0125C169.76 26.0125 170.719 25.9733 171.437 25.8948C172.155 25.8164 172.701 25.7139 173.078 25.5811C173.455 25.4514 173.696 25.2825 173.802 25.0714V19.2469C173.566 19.1685 173.129 19.0901 172.492 19.0117C171.853 18.9332 171.183 18.8608 170.478 18.7975C169.775 18.7311 169.175 18.701 168.68 18.701C167.558 18.701 166.653 18.7673 165.962 18.897C165.271 19.0267 164.777 19.3525 164.475 19.8743C164.177 20.3961 164.026 21.2045 164.026 22.2994C164.026 23.1591 164.128 23.8649 164.339 24.4108C164.548 24.9568 164.97 25.364 165.609 25.6234C166.249 25.8828 167.232 26.0125 168.562 26.0125ZM170.791 9.16047C170.321 9.16047 169.877 9.0368 169.461 8.78946C169.045 8.54213 168.62 8.30083 168.191 8.06556C167.76 7.83029 167.326 7.71265 166.882 7.71265C166.439 7.71265 166.101 7.86347 165.866 8.16208C165.63 8.46371 165.462 8.70199 165.356 8.88599L164.653 8.37624C164.68 8.29781 164.744 8.15605 164.849 7.94491C164.952 7.73678 165.097 7.50151 165.281 7.24211C165.462 6.98271 165.691 6.75951 165.965 6.57853C166.24 6.39755 166.571 6.30405 166.964 6.30405C167.407 6.30405 167.835 6.42772 168.255 6.67505C168.671 6.92239 169.087 7.16972 169.506 7.41706C169.923 7.66439 170.342 7.78806 170.758 7.78806C171.28 7.78806 171.678 7.62518 171.95 7.29942C172.224 6.97366 172.411 6.70521 172.517 6.49708L173.259 7.00684C173.207 7.08526 173.129 7.23608 173.023 7.45627C172.918 7.67646 172.761 7.92078 172.553 8.18018C172.345 8.4426 172.097 8.66881 171.811 8.86487C171.521 9.06093 171.18 9.16047 170.791 9.16047Z" fill="#276EB6"/>
<path d="M187.26 27.3004C186.06 27.3004 184.986 27.21 184.036 27.026C183.083 26.845 182.262 26.48 181.571 25.931C180.881 25.3851 180.353 24.5767 179.988 23.5059C179.623 22.4382 179.442 21.0296 179.442 19.2831C179.442 17.5367 179.623 16.1281 179.988 15.0603C180.353 13.9926 180.881 13.1842 181.571 12.6352C182.262 12.0893 183.083 11.7243 184.036 11.5403C184.986 11.3594 186.063 11.2659 187.26 11.2659C188.433 11.2659 189.495 11.3563 190.445 11.5403C191.395 11.7213 192.21 12.0863 192.889 12.6352C193.567 13.1812 194.086 13.9896 194.451 15.0603C194.816 16.1281 195 17.5367 195 19.2831C195 21.0567 194.816 22.4774 194.451 23.5452C194.086 24.6129 193.564 25.4153 192.889 25.9491C192.21 26.483 191.395 26.842 190.445 27.0229C189.495 27.2099 188.433 27.3004 187.26 27.3004ZM187.26 25.7772C188.304 25.7772 189.197 25.6204 189.939 25.3067C190.681 24.993 191.248 24.3807 191.64 23.4698C192.032 22.5588 192.225 21.1623 192.225 19.2862C192.225 17.41 192.029 16.0165 191.64 15.1026C191.248 14.1916 190.681 13.5763 189.939 13.2656C189.197 12.952 188.304 12.7951 187.26 12.7951C186.216 12.7951 185.324 12.952 184.582 13.2656C183.84 13.5793 183.264 14.1916 182.862 15.1026C182.458 16.0165 182.256 17.41 182.256 19.2862C182.256 21.1623 182.458 22.5588 182.862 23.4698C183.267 24.3837 183.84 24.996 184.582 25.3067C185.327 25.6204 186.22 25.7772 187.26 25.7772Z" fill="#276EB6"/>
</svg>
