<svg width="70" height="42" viewBox="0 0 70 42" fill="none" xmlns="http://www.w3.org/2000/svg">
<g clip-path="url(#clip0_2556_8322)">
<path d="M67.2299 42H2.32086C1.04813 42 0 40.9519 0 39.6791V2.32086C0 1.04813 1.04813 0 2.32086 0H67.2674C68.5401 0 69.5882 1.04813 69.5882 2.32086V39.6791C69.5508 40.9519 68.5027 42 67.2299 42Z" fill="white"/>
<path d="M67.2299 0.187166C68.3904 0.187166 69.3636 1.12299 69.3636 2.32086V39.6791C69.3636 40.8396 68.4278 41.8128 67.2299 41.8128H2.32086C1.16043 41.8128 0.187166 40.877 0.187166 39.6791V2.32086C0.187166 1.12299 1.12299 0.187166 2.32086 0.187166H67.2299ZM67.2299 0H2.32086C1.04813 0 0 1.04813 0 2.32086V39.6791C0 40.9519 1.04813 42 2.32086 42H67.2674C68.5401 42 69.5882 40.9519 69.5882 39.6791V2.32086C69.5508 1.04813 68.5027 0 67.2299 0Z" fill="#1D4174"/>
<path d="M67.2299 42H2.32086C1.04813 42 0 40.9519 0 39.6791V21H69.5508V39.6791C69.5508 40.9519 68.5027 42 67.2299 42Z" fill="#1D4174"/>
<path d="M26.0535 34.0646L27.0267 33.7651L26.7273 33.0539C26.4653 33.3534 26.2407 33.7277 26.0535 34.0646ZM25.7166 30.8828L23.8075 26.6528L9.9198 27.4389L13.7754 37.9202L21.1872 35.5994C20.7005 34.9256 20.5508 34.102 21.0749 33.7277C21.6738 33.2785 22.6096 33.8026 23.1711 34.5138C23.7701 33.578 25.3423 31.3694 25.7166 30.8828Z" fill="#235F64"/>
<path d="M23.3944 29.703C23.9559 29.703 24.4426 29.2538 24.4426 28.6923C24.4426 28.1308 23.9559 27.6816 23.3944 27.6816C22.8329 27.6816 22.3463 28.1308 22.3463 28.6923C22.3463 29.2538 22.7955 29.703 23.3944 29.703ZM22.5335 30.1522H24.2554V34.6442H22.5335V30.1522Z" fill="white"/>
<path d="M21.6722 31.4624C21.7096 31.4624 21.7096 31.4624 21.6722 31.4624L21.7096 30.302C21.7096 30.302 21.7096 30.2646 21.6722 30.2646C21.6722 30.2646 21.4476 30.1148 20.7738 30.0774C20.7363 30.04 20.1374 30.04 19.9877 30.0774C17.4797 30.2646 17.4048 32.0988 17.4048 32.1736V32.6228C17.4048 32.6603 17.4048 34.5319 19.9877 34.6817C20.2497 34.7191 20.7363 34.6817 20.7738 34.6817C21.3727 34.6817 21.7845 34.4945 21.7845 34.4945L21.8219 34.4571V33.4089C21.8219 33.4089 21.8219 33.3715 21.7845 33.4089C21.7845 33.4089 21.5973 33.5587 20.7738 33.6335C20.5492 33.671 20.4369 33.6335 20.362 33.6335C19.2016 33.4464 19.1641 32.5854 19.1641 32.5854V32.548V32.2111V32.1736C19.1641 32.1736 19.239 31.2753 20.362 31.163H20.7738C21.2604 31.2004 21.6722 31.4624 21.6722 31.4624Z" fill="white"/>
<path d="M12.5758 34.6062C12.5758 34.6436 12.6132 34.6436 12.5758 34.6062L14.2603 34.6436C14.2603 34.6436 14.2977 34.6436 14.2977 34.6062V33.296C14.2977 33.296 14.2977 33.2586 14.3352 33.2586C14.3352 33.2586 17.0304 33.4458 17.0304 31.649C17.0304 30.2265 15.3459 30.0768 14.7844 30.1142H12.6132C12.6132 30.1142 12.5758 30.1142 12.5758 30.1516V34.6062ZM14.2977 32.2853V31.1249H14.7095C14.7095 31.1249 15.3084 31.1623 15.3459 31.5741C15.3459 31.6115 15.3459 31.7987 15.3459 31.7987C15.271 32.2853 14.7469 32.2853 14.7469 32.2853H14.2977Z" fill="white"/>
<path d="M23.4331 37.096C22.909 37.096 22.6845 36.9837 22.5347 36.834L22.4973 36.7965C21.8984 36.235 21.2246 35.2992 21.0374 34.9997C20.9625 34.8874 20.9625 34.7377 20.9625 34.7377C20.9625 34.5131 20.9625 34.3259 21.1871 34.1013C21.4117 33.8767 21.7861 33.8019 21.8609 33.8019C21.9732 33.8019 22.0855 33.8393 22.0855 33.8393H22.123H22.1604C22.6096 34.0639 23.0962 34.5505 23.3582 34.85C23.508 34.6254 23.6577 34.3634 23.8449 34.0639C25.0427 32.08 26.6524 29.3848 28.4117 29.3848H28.4492C29.0107 29.3848 29.0481 29.6842 29.0481 29.7591C29.0481 29.7965 29.0481 29.8714 28.9732 29.9837C28.9358 30.0211 28.8984 30.0586 28.8609 30.096C27.5508 31.0318 26.2406 33.3527 25.3048 35.0746C24.5935 36.3099 24.2941 36.8714 23.9946 37.0211C23.7326 37.096 23.5828 37.096 23.4331 37.096Z" fill="#3CB65E"/>
<path d="M28.4117 29.6469H28.4491C28.786 29.6469 28.786 29.7592 28.786 29.7592V29.7967L28.7486 29.8341C26.5775 31.3689 24.5187 36.4223 23.9197 36.7218C23.7326 36.7967 23.6203 36.7967 23.508 36.7967C22.9839 36.7967 22.8342 36.6469 22.7593 36.5721C22.1978 36.048 21.524 35.1122 21.3743 34.8502C21.3368 34.8127 21.3368 34.7379 21.3368 34.7379C21.3368 34.5507 21.3368 34.4384 21.4866 34.2887C21.6363 34.1389 21.8983 34.1015 21.9358 34.1015C21.9358 34.1015 21.9358 34.1015 21.9732 34.1015C22.0481 34.1015 22.0855 34.1389 22.1229 34.1389C22.7219 34.4758 23.4331 35.2994 23.4331 35.2994H23.4705H23.508C24.4812 33.6523 26.4652 29.6469 28.4117 29.6469ZM28.4117 29.0854C26.5026 29.0854 24.8556 31.8555 23.6203 33.9143C23.508 34.1015 23.4331 34.2512 23.3208 34.401C23.0213 34.1389 22.647 33.802 22.3101 33.6149L22.2727 33.5774H22.2352C22.1229 33.54 22.0106 33.54 21.9358 33.54C21.8983 33.54 21.8983 33.54 21.8609 33.54C21.6737 33.54 21.262 33.6523 21.0374 33.9143C20.7379 34.2512 20.7379 34.5133 20.7379 34.7379C20.7379 34.8502 20.7753 34.9999 20.8502 35.1496C21.0374 35.4491 21.7486 36.4598 22.3475 37.0213H22.385H22.4224C22.647 37.2084 22.909 37.3582 23.508 37.3582C23.6577 37.3582 23.8823 37.3582 24.1443 37.2459C24.5187 37.0587 24.8181 36.4972 25.5668 35.1871C26.4652 33.6149 27.7753 31.2191 29.0481 30.3207C29.1229 30.2833 29.1604 30.2084 29.2352 30.1336C29.3101 30.0213 29.3475 29.909 29.3475 29.7592C29.3475 29.6844 29.3101 29.0854 28.4491 29.0854H28.4117Z" fill="white"/>
<path d="M34.2515 33.0158L34.7756 33.203C34.6633 33.7644 34.4761 34.2136 34.1766 34.5131C33.8772 34.8126 33.5403 34.9623 33.1285 34.9623C32.7167 34.9623 32.3424 34.85 32.0804 34.6254C31.8183 34.4008 31.6312 34.0639 31.4814 33.6147C31.3317 33.1655 31.2568 32.7163 31.2568 32.1923C31.2568 31.6308 31.3317 31.1441 31.4814 30.7698C31.6312 30.3955 31.8558 30.0586 32.1552 29.834C32.4547 29.6094 32.7542 29.4971 33.0911 29.4971C33.5028 29.4971 33.8023 29.6468 34.1018 29.9088C34.4012 30.1709 34.551 30.5452 34.6633 31.0318L34.1392 31.1816C34.0643 30.8072 33.9146 30.5078 33.7274 30.358C33.5403 30.2083 33.3531 30.096 33.0911 30.096C32.7916 30.096 32.5296 30.2083 32.3424 30.3955C32.1552 30.5826 32.0055 30.8447 31.9306 31.1816C31.8558 31.5185 31.8183 31.8554 31.8183 32.1923C31.8183 32.6415 31.8558 33.0158 31.9681 33.3527C32.0804 33.6896 32.2301 33.9516 32.4173 34.1013C32.6044 34.2511 32.829 34.3634 33.0911 34.3634C33.3905 34.3634 33.6151 34.2511 33.8397 34.0265C34.0269 33.8019 34.1766 33.465 34.2515 33.0158Z" fill="white"/>
<path d="M35.4121 34.8879V29.6099H38.257V30.2462H35.9362V31.8184H38.1073V32.4548H35.9362V34.2516H38.3693V34.8879H35.4121Z" fill="white"/>
<path d="M39.0802 34.8879V29.6099H40.8396C41.1765 29.6099 41.4385 29.6473 41.6257 29.7596C41.8128 29.8719 41.9626 30.0216 42.0749 30.2462C42.1872 30.4708 42.2246 30.7703 42.2246 31.0323C42.2246 31.4067 42.1497 31.7061 41.9626 31.9682C41.7754 32.2302 41.5134 32.3799 41.139 32.4548C41.2888 32.5296 41.3636 32.6419 41.4385 32.7168C41.5882 32.904 41.738 33.1286 41.8877 33.428L42.5615 34.8505H41.9251L41.4011 33.7649C41.2513 33.4655 41.139 33.2034 41.0267 33.0537C40.9144 32.904 40.8396 32.7542 40.7647 32.7168C40.6898 32.6419 40.615 32.6045 40.5401 32.5671C40.4652 32.5671 40.3904 32.5297 40.2406 32.5297H39.6417V34.8879H39.0802ZM39.6043 31.9307H40.7273C40.9519 31.9307 41.139 31.8933 41.2888 31.8184C41.4385 31.7436 41.5134 31.6313 41.5882 31.519C41.6631 31.3692 41.7005 31.2195 41.7005 31.0323C41.7005 30.7703 41.6257 30.5831 41.5134 30.4334C41.3636 30.2837 41.1765 30.2088 40.877 30.2088H39.6417V31.9307H39.6043Z" fill="white"/>
<path d="M43.9469 34.8878V30.2086H42.6367V29.5723H45.7437V30.2086H44.4335V34.8503H43.9469V34.8878Z" fill="white"/>
<path d="M46.3798 34.8879V29.6099H46.9038V34.8879H46.3798Z" fill="white"/>
<path d="M47.8398 34.8879V29.6099H50.4976V30.2462H48.3639V31.8933H50.1981V32.5297H48.3639V34.9254H47.8398V34.8879Z" fill="white"/>
<path d="M51.2458 34.8879V29.6099H51.7699V34.8879H51.2458Z" fill="white"/>
<path d="M52.7061 34.8879V29.6099H55.551V30.2462H53.2301V31.8184H55.4012V32.4548H53.2301V34.2516H55.6633V34.8879H52.7061Z" fill="white"/>
<path d="M56.374 34.8879V29.6099H57.7216C58.0211 29.6099 58.2457 29.6473 58.4328 29.6847C58.6574 29.7596 58.8446 29.8719 58.9943 30.0591C59.2189 30.2837 59.3687 30.5831 59.4435 30.9575C59.5558 31.3318 59.5933 31.7436 59.5933 32.2302C59.5933 32.6419 59.5558 32.9788 59.481 33.2783C59.4061 33.5778 59.3312 33.8398 59.2189 34.0644C59.1066 34.2516 58.9943 34.4387 58.8446 34.551C58.7323 34.6633 58.5451 34.7382 58.358 34.8131C58.1708 34.8879 57.9462 34.8879 57.7216 34.8879H56.374ZM56.8981 34.2516H57.7216C57.9836 34.2516 58.1708 34.2141 58.3205 34.1393C58.4703 34.0644 58.5826 33.9895 58.6574 33.8772C58.7697 33.7275 58.882 33.5029 58.9569 33.2034C59.0318 32.9414 59.0692 32.5671 59.0692 32.1928C59.0692 31.6313 58.9943 31.2195 58.882 30.92C58.7323 30.6206 58.5826 30.4334 58.3954 30.3211C58.2457 30.2462 58.0211 30.2088 57.7216 30.2088H56.8981V34.2516Z" fill="white"/>
<path d="M30.9577 4.26758H19.6154C18.717 4.26758 18.1555 5.20341 18.5673 5.9895L19.6903 8.16063H17.6315C17.2197 8.16063 16.8828 8.49752 16.8828 8.90929C16.8828 9.02159 16.9202 9.17132 16.9577 9.24619L20.6261 16.1713C20.8133 16.5457 21.2625 16.6954 21.6368 16.4708C21.7866 16.3959 21.8989 16.2836 21.9363 16.1713L22.947 14.2997L24.1823 16.658C24.6315 17.4815 25.7919 17.4815 26.2411 16.658L31.9309 5.95207C32.3801 5.16597 31.8186 4.26758 30.9577 4.26758ZM25.8668 8.83442L23.3962 13.4761C23.2839 13.7382 22.947 13.813 22.7224 13.7007C22.6475 13.6633 22.5727 13.5884 22.4978 13.4761L20.0646 8.87186C19.9523 8.60982 20.0272 8.31036 20.2892 8.19806C20.3641 8.16063 20.439 8.12319 20.5138 8.12319H25.4176C25.6796 8.12319 25.9042 8.34779 25.9042 8.60982C25.9416 8.68469 25.9042 8.75956 25.8668 8.83442Z" fill="#EE2565"/>
<path d="M43.0484 9.24588H41.8131V13.4758C41.8131 13.5507 41.7383 13.6256 41.6634 13.6256H40.6902C40.6153 13.6256 40.5404 13.5507 40.5404 13.4758V9.24588H39.3051C39.2303 9.24588 39.1554 9.17102 39.1554 9.09615V8.34749C39.1554 8.27262 39.2303 8.19775 39.3051 8.19775H43.0484C43.1233 8.19775 43.1982 8.27262 43.1982 8.34749V9.09615C43.1982 9.17102 43.1233 9.24588 43.0484 9.24588Z" fill="#EE2565"/>
<path d="M47.0537 13.6254C46.7916 13.6628 46.3799 13.7377 45.5938 13.7377C44.658 13.7377 43.797 13.5131 43.797 12.1655V9.73235C43.797 8.38476 44.6205 8.16016 45.5938 8.16016C46.3799 8.16016 46.7916 8.23502 47.0537 8.27246C47.166 8.27246 47.2034 8.30989 47.2034 8.42219V9.09599C47.2034 9.17085 47.1285 9.24572 47.0537 9.24572H45.5189C45.182 9.24572 45.0323 9.35802 45.0323 9.73235V10.4061H46.9788C47.0537 10.4061 47.1285 10.481 47.1285 10.5559V11.2671C47.1285 11.342 47.0537 11.4168 46.9788 11.4168H45.0323V12.2029C45.0323 12.5773 45.1446 12.6896 45.5189 12.6896H47.0537C47.1285 12.6896 47.2034 12.7644 47.2034 12.8393V13.5131C47.2034 13.5505 47.166 13.588 47.0537 13.6254Z" fill="#EE2565"/>
<path d="M52.5561 13.6254H51.3957C51.2834 13.6254 51.2459 13.588 51.2085 13.5131L50.1978 11.9035L49.2994 13.4757C49.262 13.5505 49.1871 13.6254 49.1122 13.6254H48.0267C47.9518 13.6254 47.9144 13.588 47.9144 13.5131V13.4757L49.4866 10.8179L47.877 8.30989V8.27246C47.877 8.23502 47.9144 8.16016 47.9893 8.16016H49.1497C49.2245 8.16016 49.2994 8.23502 49.3368 8.30989L50.2727 9.76978L51.1711 8.30989C51.2085 8.23502 51.2834 8.16016 51.3582 8.16016H52.4438C52.4812 8.16016 52.5561 8.19759 52.5561 8.27246V8.30989L50.9465 10.8179L52.5935 13.4382C52.5935 13.4757 52.631 13.4757 52.631 13.5131C52.6684 13.6254 52.631 13.6254 52.5561 13.6254Z" fill="#EE2565"/>
<path d="M37.3963 8.19775C37.3589 8.19775 37.284 8.23519 37.284 8.27262L36.2359 12.2031C36.2359 12.278 36.1985 12.3154 36.1236 12.3154C36.0487 12.3154 36.0487 12.278 36.0113 12.2031L34.9632 8.27262C34.9632 8.23519 34.8883 8.19775 34.8509 8.19775H33.8027C33.7279 8.19775 33.6904 8.23519 33.6904 8.31005C33.6904 8.31005 33.6904 8.31005 33.6904 8.34749C33.6904 8.34749 35.0006 12.8395 35.0006 12.9143C35.1878 13.4384 35.5995 13.7004 36.1236 13.7004C36.6476 13.7004 37.0594 13.4384 37.2466 12.9143C37.284 12.8395 38.5193 8.34749 38.5193 8.34749C38.5193 8.27262 38.4819 8.23519 38.4444 8.19775C38.4444 8.19775 38.4444 8.19775 38.407 8.19775H37.3963Z" fill="#EE2565"/>
<path d="M30.9577 4.26758H19.6154C18.717 4.26758 18.1555 5.20341 18.5673 5.9895L19.6903 8.16063H17.6315C17.2197 8.16063 16.8828 8.49752 16.8828 8.90929C16.8828 9.02159 16.9202 9.17132 16.9577 9.24619L20.6261 16.1713C20.8133 16.5457 21.2625 16.6954 21.6368 16.4708C21.7866 16.3959 21.8989 16.2836 21.9363 16.1713L22.947 14.2997L24.1823 16.658C24.6315 17.4815 25.7919 17.4815 26.2411 16.658L31.9309 5.95207C32.3801 5.16597 31.8186 4.26758 30.9577 4.26758ZM25.8668 8.83442L23.3962 13.4761C23.2839 13.7382 22.947 13.813 22.7224 13.7007C22.6475 13.6633 22.5727 13.5884 22.4978 13.4761L20.0646 8.87186C19.9523 8.60982 20.0272 8.31036 20.2892 8.19806C20.3641 8.16063 20.439 8.12319 20.5138 8.12319H25.4176C25.6796 8.12319 25.9042 8.34779 25.9042 8.60982C25.9416 8.68469 25.9042 8.75956 25.8668 8.83442Z" fill="#EE2565"/>
</g>
<defs>
<clipPath id="clip0_2556_8322">
<rect width="69.5508" height="42" fill="white"/>
</clipPath>
</defs>
</svg>
